<?xml version="1.0" encoding="utf-8"?>
<!-- Generator: Adobe Illustrator 16.0.0, SVG Export Plug-In . SVG Version: 6.00 Build 0)  -->
<!DOCTYPE svg PUBLIC "-//W3C//DTD SVG 1.1//EN" "http://www.w3.org/Graphics/SVG/1.1/DTD/svg11.dtd">
<svg version="1.1" id="Layer_1" xmlns="http://www.w3.org/2000/svg" xmlns:xlink="http://www.w3.org/1999/xlink" x="0px" y="0px"
	 width="256px" height="256px" viewBox="0 0 256 256" enable-background="new 0 0 256 256" xml:space="preserve">
<g>
	<path fill="#FF6E69" d="M245.458,43.94c0-16.043-13.13-29.166-29.175-29.166H39.711c-16.041,0-29.169,13.122-29.169,29.166v17.5
		h234.916V43.94z"/>
	<path fill="#EDEDED" d="M10.542,61.439v165.396C10.542,242.877,23.67,256,39.711,256h176.572c16.045,0,29.175-13.123,29.175-29.164
		V61.439H10.542z"/>
	<path fill="#FFFFFF" d="M58.363,38.103c0-5.634-4.567-10.207-10.21-10.207c-5.639,0-10.206,4.573-10.206,10.207
		c0,5.641,4.567,10.211,10.206,10.211C53.795,48.314,58.363,43.744,58.363,38.103z"/>
	<path fill="#FFFFFF" d="M138.205,38.103c0-5.634-4.567-10.207-10.206-10.207c-5.637,0-10.21,4.573-10.21,10.207
		c0,5.641,4.573,10.211,10.21,10.211C133.638,48.314,138.205,43.744,138.205,38.103z"/>
	<path fill="#FFFFFF" d="M218.048,38.103c0-5.634-4.567-10.207-10.205-10.207c-5.645,0-10.212,4.573-10.212,10.207
		c0,5.641,4.567,10.211,10.212,10.211C213.48,48.314,218.048,43.744,218.048,38.103z"/>
	<g>
		<g>
			<path fill="#48707C" d="M48.152,45.095c-3.863,0-6.994-3.13-6.994-6.992V6.995C41.159,3.131,44.29,0,48.152,0
				c3.862,0,6.993,3.131,6.993,6.995v31.108C55.145,41.965,52.015,45.095,48.152,45.095z"/>
		</g>
		<g>
			<path fill="#48707C" d="M127.999,45.095c-3.862,0-6.993-3.13-6.993-6.992V6.995c0-3.863,3.131-6.995,6.993-6.995
				c3.863,0,6.994,3.131,6.994,6.995v31.108C134.993,41.965,131.862,45.095,127.999,45.095z"/>
		</g>
		<g>
			<path fill="#48707C" d="M207.843,45.095c-3.863,0-6.994-3.13-6.994-6.992V6.995c0-3.863,3.131-6.995,6.994-6.995
				c3.861,0,6.992,3.131,6.992,6.995v31.108C214.835,41.965,211.704,45.095,207.843,45.095z"/>
		</g>
	</g>
	<g>
		<path fill="#48707C" d="M116.646,153.927c0,15.866-3.016,28.033-9.042,36.513c-6.031,8.473-14.347,12.713-24.951,12.713
			c-10.61,0-18.926-4.24-24.958-12.713c-6.026-8.479-9.042-20.646-9.042-36.513c0-7.89,0.792-14.865,2.382-20.941
			c1.584-6.07,3.874-11.194,6.867-15.362c2.989-4.168,6.573-7.344,10.741-9.52c4.169-2.177,8.84-3.266,14.009-3.266
			c10.604,0,18.92,4.24,24.951,12.714C113.631,126.031,116.646,138.154,116.646,153.927z M95.979,153.927
			c0-4.715-0.229-8.998-0.682-12.85c-0.455-3.853-1.181-7.185-2.175-9.992c-1-2.812-2.36-4.989-4.081-6.529
			c-1.722-1.54-3.852-2.312-6.387-2.312c-2.542,0-4.65,0.772-6.327,2.312c-1.677,1.541-3.038,3.718-4.076,6.529
			c-1.043,2.808-1.792,6.14-2.245,9.992c-0.454,3.852-0.684,8.135-0.684,12.85c0,4.716,0.229,9.02,0.684,12.916
			c0.453,3.901,1.202,7.256,2.245,10.063c1.038,2.814,2.399,4.988,4.076,6.528c1.677,1.541,3.786,2.312,6.327,2.312
			c2.535,0,4.665-0.771,6.387-2.312c1.721-1.54,3.082-3.714,4.081-6.528c0.994-2.808,1.72-6.162,2.175-10.063
			C95.75,162.946,95.979,158.643,95.979,153.927z"/>
		<path fill="#48707C" d="M174.707,141.147c5.895,0,10.898,0.793,15.023,2.378c4.125,1.583,7.502,3.736,10.135,6.457
			c2.628,2.721,4.529,5.896,5.71,9.517c1.175,3.629,1.765,7.479,1.765,11.561c0,3.629-0.656,7.344-1.968,11.152
			c-1.316,3.807-3.31,7.25-5.987,10.33c-2.673,3.088-6.069,5.621-10.195,7.615c-4.124,1.995-8.998,2.995-14.619,2.995
			c-11.331,0-19.941-3.584-25.837-10.746c-5.89-7.157-8.834-17.04-8.834-29.64c0-9.063,1.403-17.089,4.212-24.066
			c2.808-6.982,6.824-12.852,12.036-17.614c5.211-4.758,11.511-8.38,18.897-10.877c7.392-2.491,15.707-3.781,24.951-3.875
			c0.186,2.812,0.366,5.554,0.547,8.229c0.18,2.672,0.36,5.461,0.546,8.359c-4.628,0.094-8.954,0.524-12.985,1.295
			c-4.037,0.77-7.71,1.972-11.016,3.6c-3.311,1.634-6.189,3.742-8.637,6.326c-2.448,2.584-4.35,5.731-5.71,9.452
			c1.994-0.907,4.032-1.54,6.119-1.907C170.941,141.328,172.892,141.147,174.707,141.147z M172.122,156.921
			c-1.994,0-4.125,0.181-6.393,0.54c-2.261,0.367-4.031,0.864-5.3,1.498c0,0.36-0.021,0.906-0.07,1.635
			c-0.044,0.725-0.066,1.354-0.066,1.899c0,3.262,0.225,6.349,0.679,9.245c0.453,2.906,1.225,5.441,2.311,7.615
			c1.092,2.174,2.541,3.873,4.354,5.099c1.815,1.223,4.082,1.835,6.798,1.835c2.268,0,4.196-0.477,5.779-1.427
			c1.586-0.949,2.901-2.151,3.945-3.6c1.038-1.454,1.814-3.06,2.312-4.829c0.497-1.766,0.749-3.471,0.749-5.099
			c0-4.621-1.159-8.179-3.47-10.676C181.438,158.166,177.564,156.921,172.122,156.921z"/>
	</g>
	<path opacity="0.15" d="M216.283,14.774h-1.448v-7.78c0-3.863-3.131-6.995-6.992-6.995c-3.863,0-6.994,3.131-6.994,6.995v7.78
		h-65.855v-7.78c0-3.863-3.131-6.995-6.994-6.995v256h88.284c16.045,0,29.175-13.123,29.175-29.164V61.439v-17.5
		C245.458,27.896,232.328,14.774,216.283,14.774z"/>
</g>
</svg>
